<svg width="23" height="26" viewBox="0 0 23 26" fill="none" xmlns="http://www.w3.org/2000/svg">
<g clip-path="url(#clip0_2_2418)">
<path d="M18.7581 13.6943C18.7466 11.571 19.6991 9.9684 21.6269 8.78816C20.5482 7.23186 18.9188 6.37561 16.7672 6.20783C14.7303 6.04584 12.5041 7.40543 11.6894 7.40543C10.8288 7.40543 8.85503 6.26569 7.30588 6.26569C4.1043 6.31776 0.701904 8.84023 0.701904 13.972C0.701904 15.4878 0.977309 17.0537 1.52812 18.6698C2.26253 20.7931 4.9133 26 7.67882 25.9132C9.12469 25.8785 10.146 24.8776 12.0279 24.8776C13.8525 24.8776 14.7992 25.9132 16.4114 25.9132C19.1999 25.8727 21.5982 21.1402 22.2982 19.0111C18.5573 17.235 18.7581 13.8042 18.7581 13.6943ZM15.5106 4.19448C17.077 2.31998 16.9336 0.613262 16.8877 0C15.5049 0.0809969 13.9041 0.948821 12.9918 2.01914C11.9878 3.16466 11.3968 4.58211 11.523 6.17891C13.0205 6.29462 14.3861 5.51936 15.5106 4.19448Z" fill="black"/>
</g>
<defs>
<clipPath id="clip0_2_2418">
<rect width="23" height="26" fill="white"/>
</clipPath>
</defs>
</svg>
