<svg width="22" height="22" viewBox="0 0 22 22" fill="none" xmlns="http://www.w3.org/2000/svg">
<g clip-path="url(#clip0_2_2422)">
<path d="M21.9144 8.82H21.0178V8.77381H11V13.2262H17.2906C16.3729 15.818 13.9068 17.6786 11 17.6786C7.31173 17.6786 4.3214 14.6882 4.3214 11C4.3214 7.31176 7.31173 4.32143 11 4.32143C12.7025 4.32143 14.2513 4.96369 15.4306 6.01278L18.579 2.86439C16.591 1.01164 13.9319 -0.130951 11 -0.130951C4.8529 -0.130951 -0.130981 4.85293 -0.130981 11C-0.130981 17.1471 4.8529 22.131 11 22.131C17.147 22.131 22.1309 17.1471 22.1309 11C22.1309 10.2537 22.0541 9.52515 21.9144 8.82Z" fill="#FBC02D"/>
<path d="M1.15247 5.8191L4.80954 8.5011C5.79908 6.05118 8.19558 4.32143 11 4.32143C12.7025 4.32143 14.2514 4.96369 15.4307 6.01278L18.5791 2.86439C16.5911 1.01164 13.9319 -0.130951 11 -0.130951C6.72462 -0.130951 3.0169 2.2828 1.15247 5.8191Z" fill="#E53935"/>
<path d="M11 22.131C13.8752 22.131 16.4876 21.0307 18.4628 19.2414L15.0177 16.3262C13.9002 17.1727 12.5111 17.6786 11 17.6786C8.10487 17.6786 5.6466 15.8325 4.7205 13.2563L1.0907 16.0529C2.93287 19.6577 6.67398 22.131 11 22.131Z" fill="#4CAF50"/>
<path d="M21.9145 8.82L21.9056 8.7738H21.0179H11V13.2262H17.2907C16.8499 14.4712 16.049 15.5448 15.016 16.3267C15.0166 16.3262 15.0172 16.3262 15.0177 16.3256L18.4627 19.2408C18.219 19.4623 22.131 16.5655 22.131 11C22.131 10.2537 22.0541 9.52514 21.9145 8.82Z" fill="#1565C0"/>
</g>
<defs>
<clipPath id="clip0_2_2422">
<rect width="22" height="22" fill="white"/>
</clipPath>
</defs>
</svg>
